<svg width="100" height="100" viewBox="0 0 100 100" fill="none" xmlns="http://www.w3.org/2000/svg">
  <!-- Globe -->
  <circle cx="46" cy="52" r="38" fill="url(#g)"/>
  <ellipse cx="46" cy="52" rx="20" ry="38" stroke="rgba(255,255,255,0.15)" stroke-width="1.2" fill="none"/>
  <ellipse cx="46" cy="52" rx="8" ry="38" stroke="rgba(255,255,255,0.1)" stroke-width="0.8" fill="none"/>
  <ellipse cx="46" cy="35" rx="36" ry="4" stroke="rgba(255,255,255,0.1)" stroke-width="0.8" fill="none"/>
  <ellipse cx="46" cy="69" rx="36" ry="4" stroke="rgba(255,255,255,0.1)" stroke-width="0.8" fill="none"/>
  <!-- W -->
  <text x="46" y="62" text-anchor="middle" font-family="Inter,system-ui,sans-serif" font-weight="900" font-size="40" fill="white">W</text>
  <!-- Sun -->
  <circle cx="76" cy="18" r="14" fill="url(#s)"/>
  <line x1="76" y1="0" x2="76" y2="-4" stroke="#FFD93D" stroke-width="3" stroke-linecap="round" transform="translate(0,4)"/>
  <line x1="89.9" y1="4.1" x2="93" y2="1" stroke="#FFD93D" stroke-width="3" stroke-linecap="round"/>
  <line x1="94" y1="18" x2="98" y2="18" stroke="#FFD93D" stroke-width="3" stroke-linecap="round"/>
  <line x1="89.9" y1="31.9" x2="93" y2="35" stroke="#FFD93D" stroke-width="3" stroke-linecap="round"/>
  <line x1="76" y1="36" x2="76" y2="40" stroke="#FFD93D" stroke-width="3" stroke-linecap="round"/>
  <line x1="62.1" y1="31.9" x2="59" y2="35" stroke="#FFD93D" stroke-width="3" stroke-linecap="round"/>
  <line x1="58" y1="18" x2="54" y2="18" stroke="#FFD93D" stroke-width="3" stroke-linecap="round"/>
  <line x1="62.1" y1="4.1" x2="59" y2="1" stroke="#FFD93D" stroke-width="3" stroke-linecap="round"/>
  <circle cx="76" cy="18" r="10" fill="#FFE566"/>
  <defs>
    <linearGradient id="g" x1="20" y1="14" x2="72" y2="90">
      <stop offset="0%" stop-color="#4BA3E3"/>
      <stop offset="50%" stop-color="#2980B9"/>
      <stop offset="100%" stop-color="#1A6FA0"/>
    </linearGradient>
    <radialGradient id="s" cx="50%" cy="40%" r="60%">
      <stop offset="0%" stop-color="#FFE566"/>
      <stop offset="100%" stop-color="#FFB340"/>
    </radialGradient>
  </defs>
</svg>
